<svg width="224" height="48" viewBox="0 0 224 48" fill="none" xmlns="http://www.w3.org/2000/svg">
<rect width="48" height="48" rx="7" fill="#D85A30"/>
<path d="M35.775 22.6525C35.9988 22.5538 36.1887 22.3916 36.3212 22.186C36.4537 21.9804 36.5229 21.7405 36.5204 21.4959C36.5179 21.2514 36.4437 21.0129 36.3069 20.8101C36.1702 20.6073 35.977 20.4491 35.7512 20.355L25.0375 15.475C24.7118 15.3265 24.358 15.2496 24 15.2496C23.642 15.2496 23.2882 15.3265 22.9625 15.475L12.25 20.35C12.0275 20.4475 11.8381 20.6077 11.7052 20.811C11.5723 21.0144 11.5015 21.2521 11.5015 21.495C11.5015 21.738 11.5723 21.9756 11.7052 22.179C11.8381 22.3823 12.0275 22.5426 12.25 22.64L22.9625 27.525C23.2882 27.6736 23.642 27.7505 24 27.7505C24.358 27.7505 24.7118 27.6736 25.0375 27.525L35.775 22.6525Z" stroke="white" stroke-width="2" stroke-linecap="round" stroke-linejoin="round"/>
<path d="M36.5 21.5V29" stroke="white" stroke-width="2" stroke-linecap="round" stroke-linejoin="round"/>
<path d="M16.5 24.625V29C16.5 29.9946 17.2902 30.9484 18.6967 31.6517C20.1032 32.3549 22.0109 32.75 24 32.75C25.9891 32.75 27.8968 32.3549 29.3033 31.6517C30.7098 30.9484 31.5 29.9946 31.5 29V24.625" stroke="white" stroke-width="2" stroke-linecap="round" stroke-linejoin="round"/>
<path d="M67.2074 20.3438C67.1278 19.5994 66.7926 19.0199 66.2017 18.6051C65.6165 18.1903 64.8551 17.983 63.9176 17.983C63.2585 17.983 62.6932 18.0824 62.2216 18.2812C61.75 18.4801 61.3892 18.75 61.1392 19.0909C60.8892 19.4318 60.7614 19.821 60.7557 20.2585C60.7557 20.6222 60.8381 20.9375 61.0028 21.2045C61.1733 21.4716 61.4034 21.6989 61.6932 21.8864C61.983 22.0682 62.304 22.2216 62.6562 22.3466C63.0085 22.4716 63.3636 22.5767 63.7216 22.6619L65.358 23.071C66.017 23.2244 66.6506 23.4318 67.2585 23.6932C67.8722 23.9545 68.4205 24.2841 68.9034 24.6818C69.392 25.0795 69.7784 25.5597 70.0625 26.1222C70.3466 26.6847 70.4886 27.3437 70.4886 28.0994C70.4886 29.1222 70.2273 30.0227 69.7045 30.8011C69.1818 31.5739 68.4261 32.179 67.4375 32.6165C66.4545 33.0483 65.2642 33.2642 63.8665 33.2642C62.5085 33.2642 61.3295 33.054 60.3295 32.6335C59.3352 32.2131 58.5568 31.5994 57.9943 30.7926C57.4375 29.9858 57.1364 29.0028 57.0909 27.8438H60.2017C60.2472 28.4517 60.4347 28.9574 60.7642 29.3608C61.0938 29.7642 61.5227 30.0653 62.0511 30.2642C62.5852 30.4631 63.1818 30.5625 63.8409 30.5625C64.5284 30.5625 65.1307 30.4602 65.6477 30.2557C66.1705 30.0455 66.5795 29.7557 66.875 29.3864C67.1705 29.0114 67.321 28.5739 67.3267 28.0739C67.321 27.6193 67.1875 27.2443 66.9261 26.9489C66.6648 26.6477 66.2983 26.3977 65.8267 26.1989C65.3608 25.9943 64.8153 25.8125 64.1903 25.6534L62.2045 25.142C60.767 24.7727 59.6307 24.2131 58.7955 23.4631C57.9659 22.7074 57.5511 21.7045 57.5511 20.4545C57.5511 19.4261 57.8295 18.5256 58.3864 17.7528C58.9489 16.9801 59.7131 16.3807 60.679 15.9545C61.6449 15.5227 62.7386 15.3068 63.9602 15.3068C65.1989 15.3068 66.2841 15.5227 67.2159 15.9545C68.1534 16.3807 68.8892 16.9744 69.4233 17.7358C69.9574 18.4915 70.233 19.3608 70.25 20.3438H67.2074ZM79.7081 19.9091V22.2955H72.1825V19.9091H79.7081ZM74.0405 16.7727H77.1257V29.0625C77.1257 29.4773 77.1882 29.7955 77.3132 30.017C77.4439 30.233 77.6143 30.3807 77.8246 30.4602C78.0348 30.5398 78.2678 30.5795 78.5234 30.5795C78.7166 30.5795 78.8928 30.5653 79.0518 30.5369C79.2166 30.5085 79.3416 30.483 79.4268 30.4602L79.9467 32.8722C79.782 32.929 79.5462 32.9915 79.2393 33.0597C78.9382 33.1278 78.5689 33.1676 78.1314 33.179C77.3587 33.2017 76.6626 33.0852 76.0433 32.8295C75.424 32.5682 74.9325 32.1648 74.5689 31.6193C74.2109 31.0739 74.0348 30.392 74.0405 29.5739V16.7727ZM90.6321 27.4943V19.9091H93.7173V33H90.7259V30.6733H90.5895C90.294 31.4062 89.8082 32.0057 89.1321 32.4716C88.4616 32.9375 87.6349 33.1705 86.652 33.1705C85.794 33.1705 85.0355 32.9801 84.3764 32.5994C83.723 32.2131 83.2116 31.6534 82.8423 30.9205C82.473 30.1818 82.2884 29.2898 82.2884 28.2443V19.9091H85.3736V27.767C85.3736 28.5966 85.6009 29.2557 86.0554 29.7443C86.5099 30.233 87.1065 30.4773 87.8452 30.4773C88.2997 30.4773 88.7401 30.3665 89.1662 30.1449C89.5923 29.9233 89.9418 29.5938 90.2145 29.1562C90.4929 28.7131 90.6321 28.1591 90.6321 27.4943ZM101.748 33.2301C100.719 33.2301 99.799 32.9659 98.9865 32.4375C98.174 31.9091 97.532 31.142 97.0604 30.1364C96.5888 29.1307 96.353 27.9091 96.353 26.4716C96.353 25.017 96.5916 23.7898 97.0689 22.7898C97.5518 21.7841 98.2024 21.0256 99.0206 20.5142C99.8388 19.9972 100.751 19.7386 101.756 19.7386C102.523 19.7386 103.154 19.8693 103.648 20.1307C104.143 20.3864 104.535 20.696 104.825 21.0597C105.114 21.4176 105.339 21.7557 105.498 22.0739H105.626V15.5455H108.719V33H105.685V30.9375H105.498C105.339 31.2557 105.109 31.5937 104.808 31.9517C104.506 32.304 104.109 32.6051 103.614 32.8551C103.12 33.1051 102.498 33.2301 101.748 33.2301ZM102.609 30.6989C103.262 30.6989 103.819 30.5227 104.279 30.1705C104.739 29.8125 105.089 29.3153 105.327 28.679C105.566 28.0426 105.685 27.3011 105.685 26.4545C105.685 25.608 105.566 24.8722 105.327 24.2472C105.094 23.6222 104.748 23.1364 104.288 22.7898C103.833 22.4432 103.273 22.2699 102.609 22.2699C101.921 22.2699 101.347 22.4489 100.887 22.8068C100.427 23.1648 100.08 23.6591 99.8473 24.2898C99.6143 24.9205 99.4979 25.642 99.4979 26.4545C99.4979 27.2727 99.6143 28.0028 99.8473 28.6449C100.086 29.2812 100.435 29.7841 100.896 30.1534C101.362 30.517 101.933 30.6989 102.609 30.6989ZM113.925 37.9091C113.504 37.9091 113.115 37.875 112.757 37.8068C112.405 37.7443 112.124 37.6705 111.913 37.5852L112.629 35.1818C113.078 35.3125 113.479 35.375 113.831 35.3693C114.183 35.3636 114.493 35.2528 114.76 35.0369C115.033 34.8267 115.263 34.4744 115.45 33.9801L115.714 33.2727L110.967 19.9091H114.24L117.257 29.7955H117.393L120.419 19.9091H123.7L118.459 34.5852C118.214 35.2784 117.891 35.8722 117.487 36.3665C117.084 36.8665 116.589 37.2472 116.004 37.5085C115.425 37.7756 114.732 37.9091 113.925 37.9091ZM140.912 21.4347H137.724C137.634 20.9119 137.466 20.4489 137.222 20.0455C136.977 19.6364 136.673 19.2898 136.31 19.0057C135.946 18.7216 135.531 18.5085 135.065 18.3665C134.605 18.2188 134.108 18.1449 133.574 18.1449C132.625 18.1449 131.784 18.3835 131.051 18.8608C130.318 19.3324 129.744 20.0256 129.33 20.9403C128.915 21.8494 128.707 22.9602 128.707 24.2727C128.707 25.608 128.915 26.733 129.33 27.6477C129.75 28.5568 130.324 29.2443 131.051 29.7102C131.784 30.1705 132.622 30.4006 133.565 30.4006C134.088 30.4006 134.577 30.3324 135.031 30.196C135.491 30.054 135.903 29.8466 136.267 29.5739C136.636 29.3011 136.946 28.9659 137.196 28.5682C137.452 28.1705 137.628 27.7159 137.724 27.2045L140.912 27.2216C140.793 28.0511 140.534 28.8295 140.136 29.5568C139.744 30.2841 139.23 30.9261 138.594 31.483C137.957 32.0341 137.213 32.4659 136.361 32.7784C135.509 33.0852 134.563 33.2386 133.523 33.2386C131.989 33.2386 130.619 32.8835 129.415 32.1733C128.21 31.4631 127.261 30.4375 126.568 29.0966C125.875 27.7557 125.528 26.1477 125.528 24.2727C125.528 22.392 125.878 20.7841 126.577 19.4489C127.276 18.108 128.227 17.0824 129.432 16.3722C130.636 15.6619 132 15.3068 133.523 15.3068C134.494 15.3068 135.398 15.4432 136.233 15.7159C137.068 15.9886 137.813 16.3892 138.466 16.9176C139.119 17.4403 139.656 18.0824 140.077 18.8438C140.503 19.5994 140.781 20.4631 140.912 21.4347ZM146.756 25.3295V33H143.671V15.5455H146.688V22.1335H146.842C147.148 21.3949 147.623 20.8125 148.265 20.3864C148.913 19.9545 149.737 19.7386 150.737 19.7386C151.646 19.7386 152.438 19.929 153.114 20.3097C153.79 20.6903 154.313 21.2472 154.683 21.9801C155.058 22.7131 155.245 23.608 155.245 24.6648V33H152.16V25.142C152.16 24.2614 151.933 23.5767 151.478 23.0881C151.029 22.5937 150.398 22.3466 149.586 22.3466C149.04 22.3466 148.552 22.4659 148.12 22.7045C147.694 22.9375 147.359 23.2756 147.114 23.7188C146.876 24.1619 146.756 24.6989 146.756 25.3295ZM162.157 33.2642C161.327 33.2642 160.58 33.1165 159.915 32.821C159.256 32.5199 158.734 32.0767 158.347 31.4915C157.967 30.9062 157.776 30.1847 157.776 29.3267C157.776 28.5881 157.913 27.9773 158.185 27.4943C158.458 27.0114 158.83 26.625 159.302 26.3352C159.773 26.0455 160.305 25.8267 160.896 25.679C161.492 25.5256 162.109 25.4148 162.745 25.3466C163.512 25.267 164.134 25.196 164.612 25.1335C165.089 25.0653 165.435 24.9631 165.651 24.8267C165.873 24.6847 165.984 24.4659 165.984 24.1705V24.1193C165.984 23.4773 165.793 22.9801 165.413 22.6278C165.032 22.2756 164.484 22.0994 163.768 22.0994C163.012 22.0994 162.413 22.2642 161.969 22.5938C161.532 22.9233 161.237 23.3125 161.083 23.7614L158.202 23.3523C158.43 22.5568 158.805 21.892 159.327 21.358C159.85 20.8182 160.489 20.4148 161.245 20.1477C162.001 19.875 162.836 19.7386 163.751 19.7386C164.381 19.7386 165.009 19.8125 165.634 19.9602C166.259 20.108 166.83 20.3523 167.347 20.6932C167.864 21.0284 168.279 21.4858 168.592 22.0653C168.91 22.6449 169.069 23.3693 169.069 24.2386V33H166.103V31.2017H166.001C165.813 31.5653 165.549 31.9062 165.208 32.2244C164.873 32.5369 164.45 32.7898 163.938 32.983C163.433 33.1705 162.839 33.2642 162.157 33.2642ZM162.958 30.9972C163.577 30.9972 164.114 30.875 164.569 30.6307C165.023 30.3807 165.373 30.0511 165.617 29.642C165.867 29.233 165.992 28.7869 165.992 28.304V26.7614C165.896 26.8409 165.731 26.9148 165.498 26.983C165.271 27.0511 165.015 27.1108 164.731 27.1619C164.447 27.2131 164.165 27.2585 163.887 27.2983C163.609 27.3381 163.367 27.3722 163.163 27.4006C162.702 27.4631 162.29 27.5653 161.927 27.7074C161.563 27.8494 161.276 28.0483 161.066 28.304C160.856 28.554 160.751 28.8778 160.751 29.2756C160.751 29.8438 160.958 30.2727 161.373 30.5625C161.788 30.8523 162.316 30.9972 162.958 30.9972ZM178.708 19.9091V22.2955H171.183V19.9091H178.708ZM173.04 16.7727H176.126V29.0625C176.126 29.4773 176.188 29.7955 176.313 30.017C176.444 30.233 176.614 30.3807 176.825 30.4602C177.035 30.5398 177.268 30.5795 177.523 30.5795C177.717 30.5795 177.893 30.5653 178.052 30.5369C178.217 30.5085 178.342 30.483 178.427 30.4602L178.947 32.8722C178.782 32.929 178.546 32.9915 178.239 33.0597C177.938 33.1278 177.569 33.1676 177.131 33.179C176.359 33.2017 175.663 33.0852 175.043 32.8295C174.424 32.5682 173.933 32.1648 173.569 31.6193C173.211 31.0739 173.035 30.392 173.04 29.5739V16.7727ZM181.254 33V30.7159L187.314 24.7756C187.893 24.1903 188.376 23.6705 188.763 23.2159C189.149 22.7614 189.439 22.321 189.632 21.8949C189.825 21.4687 189.922 21.0142 189.922 20.5312C189.922 19.9801 189.797 19.5085 189.547 19.1165C189.297 18.7188 188.953 18.4119 188.516 18.196C188.078 17.9801 187.581 17.8722 187.024 17.8722C186.45 17.8722 185.947 17.9915 185.516 18.2301C185.084 18.4631 184.749 18.7955 184.51 19.2273C184.277 19.6591 184.161 20.1733 184.161 20.7699H181.152C181.152 19.6619 181.405 18.6989 181.911 17.8807C182.416 17.0625 183.112 16.429 183.999 15.9801C184.891 15.5312 185.913 15.3068 187.067 15.3068C188.237 15.3068 189.266 15.5256 190.152 15.9631C191.038 16.4006 191.726 17 192.214 17.7614C192.709 18.5227 192.956 19.392 192.956 20.3693C192.956 21.0227 192.831 21.6648 192.581 22.2955C192.331 22.9261 191.891 23.625 191.26 24.392C190.635 25.1591 189.757 26.0881 188.626 27.179L185.618 30.2386V30.358H193.22V33H181.254ZM195.47 29.7614V27.2472L202.876 15.5455H204.973V19.125H203.695L198.709 27.0256V27.1619H209.047V29.7614H195.47ZM203.797 33V28.9943L203.831 27.8693V15.5455H206.814V33H203.797ZM212.409 33L219.832 18.3068V18.1875H211.216V15.5455H223.105V18.2472L215.69 33H212.409Z" fill="black"/>
</svg>
