<svg width="48" height="48" viewBox="0 0 48 48" fill="none" xmlns="http://www.w3.org/2000/svg">
<rect width="48" height="48" rx="7" fill="#D85A30"/>
<path d="M35.775 22.6525C35.9988 22.5538 36.1887 22.3916 36.3212 22.186C36.4537 21.9804 36.5229 21.7405 36.5204 21.4959C36.5179 21.2514 36.4437 21.0129 36.3069 20.8101C36.1702 20.6073 35.977 20.4491 35.7512 20.355L25.0375 15.475C24.7118 15.3265 24.358 15.2496 24 15.2496C23.642 15.2496 23.2882 15.3265 22.9625 15.475L12.25 20.35C12.0275 20.4475 11.8381 20.6077 11.7052 20.811C11.5723 21.0144 11.5015 21.2521 11.5015 21.495C11.5015 21.738 11.5723 21.9756 11.7052 22.179C11.8381 22.3823 12.0275 22.5426 12.25 22.64L22.9625 27.525C23.2882 27.6736 23.642 27.7505 24 27.7505C24.358 27.7505 24.7118 27.6736 25.0375 27.525L35.775 22.6525Z" stroke="white" stroke-width="2" stroke-linecap="round" stroke-linejoin="round"/>
<path d="M36.5 21.5V29" stroke="white" stroke-width="2" stroke-linecap="round" stroke-linejoin="round"/>
<path d="M16.5 24.625V29C16.5 29.9946 17.2902 30.9484 18.6967 31.6517C20.1032 32.3549 22.0109 32.75 24 32.75C25.9891 32.75 27.8968 32.3549 29.3033 31.6517C30.7098 30.9484 31.5 29.9946 31.5 29V24.625" stroke="white" stroke-width="2" stroke-linecap="round" stroke-linejoin="round"/>
</svg>
